<?xml version="1.0" encoding="UTF-8"?>
<svg width="28px" height="28px" viewBox="0 0 28 28" version="1.1" xmlns="http://www.w3.org/2000/svg" xmlns:xlink="http://www.w3.org/1999/xlink">
    <!-- Generator: Sketch 50 (54983) - http://www.bohemiancoding.com/sketch -->
    <title>Artboard 2</title>
    <desc>Created with Sketch.</desc>
    <defs></defs>
    <g id="Artboard-2" stroke="none" stroke-width="1" fill="none" fill-rule="evenodd">
        <path d="M2,2 L2,11 L5.00752498,11 L5.00752498,5.02656139 L13.0015362,5.02656139 L13.0015362,11 L16,11 L16,2 L2,2 Z M18,26 L26,26 L26,2 L23.0059844,2 L23.0059844,22.9881357 L18,22.9881357 L18,26 Z M7,11 L11,11 L11,7 L7,7 L7,11 Z M18,2 L18,21 L21,21 L21,2 L18,2 Z M16,26 L16,22.9589073 L5.04059206,22.9589073 L5.04059206,16.0474834 L12.9786825,16.0474834 L12.9786825,17.93268 L6.9972609,17.93268 L6.9972609,21.0074423 L16,21.0074423 L16,13 L2,13 L2,26 L16,26 Z" id="Shape" fill="#ED2630"></path>
    </g>
</svg>