<?xml version="1.0" encoding="UTF-8"?>
<svg width="75px" height="24px" viewBox="0 0 75 24" version="1.1" xmlns="http://www.w3.org/2000/svg" xmlns:xlink="http://www.w3.org/1999/xlink">
    <!-- Generator: Sketch 50 (54983) - http://www.bohemiancoding.com/sketch -->
    <title>Artboard 6</title>
    <desc>Created with Sketch.</desc>
    <defs></defs>
    <g id="Artboard-6" stroke="none" stroke-width="1" fill="none" fill-rule="evenodd">
        <g id="Group">
            <rect id="Rectangle-7" fill="#FFFFFF" x="0" y="0" width="75" height="24"></rect>
            <path d="M14.588,10.63 L13.258,10.756 L12.978,9.23 L10.164,9.23 L10.164,12.156 L14.112,12.156 L14.112,13.472 L10.164,13.472 L10.164,15.67 L11.69,15.67 L11.69,17 L7.56,17 L7.56,15.67 L8.61,15.67 L8.61,9.23 L7.56,9.23 L7.56,7.9 L14.308,7.9 L14.588,10.63 Z M22.386,17 L15.456,17 L15.456,15.67 L16.506,15.67 L16.506,9.23 L15.456,9.23 L15.456,7.9 L22.288,7.9 L22.568,10.532 L21.238,10.644 L20.958,9.23 L18.06,9.23 L18.06,11.75 L22.064,11.75 L22.064,13.08 L18.06,13.08 L18.06,15.67 L21.056,15.67 L21.336,14.256 L22.666,14.368 L22.386,17 Z M32.55,12.422 C32.55,15.152 30.828,17 27.958,17 L23.73,17 L23.73,15.67 L24.78,15.67 L24.78,9.23 L23.73,9.23 L23.73,7.9 L27.874,7.9 C30.926,7.9 32.55,9.748 32.55,12.422 Z M30.884,12.436 C30.884,10.364 29.82,9.23 27.832,9.23 L26.334,9.23 L26.334,15.67 L27.832,15.67 C29.792,15.67 30.884,14.592 30.884,12.436 Z M43.54,11.862 L42.91,11.862 L41.146,17 L40.026,17 L38.29,12.856 L38.22,12.856 L36.582,17 L35.518,17 L33.712,11.862 L33.096,11.862 L33.096,10.714 L36.288,10.714 L36.288,11.862 L35.308,11.862 L36.274,14.886 L36.358,14.886 L37.968,10.714 L38.892,10.714 L40.698,14.844 L40.782,14.844 L41.538,11.862 L40.6,11.862 L40.6,10.714 L43.54,10.714 L43.54,11.862 Z M54.208,11.862 L53.578,11.862 L51.814,17 L50.694,17 L48.958,12.856 L48.888,12.856 L47.25,17 L46.186,17 L44.38,11.862 L43.764,11.862 L43.764,10.714 L46.956,10.714 L46.956,11.862 L45.976,11.862 L46.942,14.886 L47.026,14.886 L48.636,10.714 L49.56,10.714 L51.366,14.844 L51.45,14.844 L52.206,11.862 L51.268,11.862 L51.268,10.714 L54.208,10.714 L54.208,11.862 Z M64.876,11.862 L64.246,11.862 L62.482,17 L61.362,17 L59.626,12.856 L59.556,12.856 L57.918,17 L56.854,17 L55.048,11.862 L54.432,11.862 L54.432,10.714 L57.624,10.714 L57.624,11.862 L56.644,11.862 L57.61,14.886 L57.694,14.886 L59.304,10.714 L60.228,10.714 L62.034,14.844 L62.118,14.844 L62.874,11.862 L61.936,11.862 L61.936,10.714 L64.876,10.714 L64.876,11.862 Z M65.044,17 L65.044,15.012 L66.892,15.012 L66.892,17 L65.044,17 Z" id="FEDwww." fill="#383F86"></path>
        </g>
    </g>
</svg>